<svg xmlns="http://www.w3.org/2000/svg" width="1920" height="1080" fill="none" viewBox="0 0 1920 1080"><rect width="1920" height="1080" fill="#01252C"/><path fill="#fff" fill-opacity=".09" d="M811.812 1043.27C811.744 1042.7 811.467 1042.25 810.982 1041.93C810.497 1041.61 809.903 1041.45 809.198 1041.45C808.683 1041.45 808.232 1041.54 807.846 1041.7C807.463 1041.87 807.164 1042.1 806.948 1042.39C806.736 1042.68 806.63 1043.02 806.63 1043.39C806.63 1043.7 806.704 1043.96 806.852 1044.19C807.003 1044.41 807.196 1044.59 807.431 1044.74C807.666 1044.88 807.912 1045 808.17 1045.1C808.427 1045.19 808.664 1045.26 808.88 1045.32L810.062 1045.64C810.365 1045.72 810.702 1045.83 811.073 1045.97C811.448 1046.11 811.806 1046.3 812.147 1046.54C812.492 1046.78 812.776 1047.09 812.999 1047.46C813.223 1047.84 813.335 1048.3 813.335 1048.84C813.335 1049.47 813.17 1050.04 812.84 1050.55C812.514 1051.05 812.037 1051.46 811.408 1051.76C810.783 1052.05 810.024 1052.2 809.13 1052.2C808.297 1052.2 807.575 1052.07 806.965 1051.8C806.359 1051.53 805.882 1051.16 805.533 1050.68C805.189 1050.2 804.994 1049.64 804.948 1049H806.403C806.441 1049.44 806.588 1049.8 806.846 1050.09C807.107 1050.37 807.437 1050.59 807.835 1050.73C808.236 1050.86 808.668 1050.93 809.13 1050.93C809.668 1050.93 810.151 1050.84 810.579 1050.67C811.007 1050.49 811.346 1050.25 811.596 1049.93C811.846 1049.61 811.971 1049.24 811.971 1048.82C811.971 1048.43 811.863 1048.12 811.647 1047.88C811.431 1047.63 811.147 1047.44 810.795 1047.28C810.442 1047.13 810.062 1047 809.653 1046.89L808.221 1046.48C807.312 1046.22 806.592 1045.84 806.062 1045.36C805.531 1044.87 805.266 1044.24 805.266 1043.45C805.266 1042.8 805.442 1042.23 805.795 1041.75C806.151 1041.26 806.628 1040.88 807.227 1040.61C807.829 1040.34 808.501 1040.2 809.244 1040.2C809.994 1040.2 810.66 1040.34 811.244 1040.61C811.827 1040.87 812.289 1041.24 812.63 1041.7C812.975 1042.16 813.156 1042.69 813.175 1043.27H811.812ZM816.129 1040.36L819.583 1050.16H819.719L823.174 1040.36H824.651L820.379 1052H818.924L814.651 1040.36H816.129ZM833.871 1044C833.746 1043.62 833.582 1043.27 833.377 1042.97C833.176 1042.66 832.936 1042.4 832.656 1042.19C832.379 1041.97 832.065 1041.81 831.712 1041.69C831.36 1041.58 830.974 1041.52 830.553 1041.52C829.864 1041.52 829.237 1041.7 828.673 1042.06C828.108 1042.41 827.659 1042.94 827.326 1043.63C826.993 1044.32 826.826 1045.17 826.826 1046.18C826.826 1047.19 826.995 1048.04 827.332 1048.73C827.669 1049.43 828.125 1049.95 828.701 1050.31C829.277 1050.66 829.924 1050.84 830.644 1050.84C831.311 1050.84 831.898 1050.7 832.406 1050.41C832.917 1050.13 833.315 1049.72 833.599 1049.2C833.887 1048.67 834.031 1048.05 834.031 1047.34L834.462 1047.43H830.962V1046.18H835.394V1047.43C835.394 1048.39 835.19 1049.22 834.781 1049.93C834.375 1050.64 833.815 1051.19 833.099 1051.58C832.387 1051.97 831.568 1052.16 830.644 1052.16C829.614 1052.16 828.709 1051.92 827.928 1051.43C827.152 1050.95 826.546 1050.26 826.11 1049.36C825.678 1048.47 825.462 1047.41 825.462 1046.18C825.462 1045.26 825.585 1044.43 825.832 1043.7C826.082 1042.96 826.434 1042.33 826.888 1041.81C827.343 1041.29 827.881 1040.9 828.502 1040.62C829.123 1040.34 829.807 1040.2 830.553 1040.2C831.167 1040.2 831.739 1040.3 832.269 1040.48C832.803 1040.66 833.279 1040.92 833.695 1041.26C834.116 1041.59 834.466 1041.99 834.746 1042.46C835.027 1042.92 835.22 1043.44 835.326 1044H833.871ZM842.308 1052V1040.36H846.376C847.186 1040.36 847.855 1040.5 848.381 1040.78C848.908 1041.06 849.3 1041.43 849.558 1041.9C849.815 1042.37 849.944 1042.89 849.944 1043.45C849.944 1043.95 849.855 1044.37 849.677 1044.69C849.503 1045.02 849.272 1045.28 848.984 1045.47C848.7 1045.66 848.391 1045.8 848.058 1045.89V1046C848.414 1046.02 848.772 1046.15 849.131 1046.38C849.491 1046.6 849.792 1046.93 850.035 1047.35C850.277 1047.78 850.398 1048.3 850.398 1048.91C850.398 1049.49 850.266 1050.02 850.001 1050.48C849.736 1050.95 849.317 1051.32 848.745 1051.59C848.173 1051.86 847.429 1052 846.512 1052H842.308ZM843.717 1050.75H846.512C847.433 1050.75 848.086 1050.57 848.472 1050.22C848.862 1049.86 849.058 1049.42 849.058 1048.91C849.058 1048.52 848.957 1048.15 848.756 1047.82C848.556 1047.48 848.27 1047.21 847.898 1047.01C847.527 1046.81 847.088 1046.7 846.58 1046.7H843.717V1050.75ZM843.717 1045.48H846.33C846.754 1045.48 847.137 1045.39 847.478 1045.23C847.823 1045.06 848.095 1044.83 848.296 1044.52C848.501 1044.22 848.603 1043.86 848.603 1043.45C848.603 1042.94 848.425 1042.51 848.069 1042.15C847.713 1041.79 847.148 1041.61 846.376 1041.61H843.717V1045.48ZM851.714 1040.36H853.327L856.555 1045.8H856.691L859.918 1040.36H861.532L857.327 1047.2V1052H855.918V1047.2L851.714 1040.36ZM877.082 1040.36V1052H875.718L869.377 1042.86H869.263V1052H867.854V1040.36H869.218L875.582 1049.52H875.695V1040.36H877.082ZM878.901 1040.36H880.515L883.742 1045.8H883.879L887.106 1040.36H888.719L884.515 1047.2V1052H883.106V1047.2L878.901 1040.36ZM890.64 1041.61V1040.36H899.367V1041.61H895.708V1052H894.299V1041.61H890.64ZM905.042 1040.2C905.519 1040.21 905.996 1040.3 906.474 1040.48C906.951 1040.66 907.387 1040.95 907.781 1041.36C908.174 1041.77 908.491 1042.33 908.729 1043.04C908.968 1043.75 909.087 1044.64 909.087 1045.7C909.087 1046.74 908.989 1047.66 908.792 1048.46C908.599 1049.26 908.318 1049.93 907.951 1050.48C907.587 1051.03 907.144 1051.45 906.621 1051.73C906.103 1052.02 905.515 1052.16 904.86 1052.16C904.209 1052.16 903.627 1052.03 903.116 1051.77C902.608 1051.51 902.192 1051.15 901.866 1050.69C901.544 1050.22 901.337 1049.68 901.246 1049.07H902.633C902.758 1049.6 903.006 1050.04 903.377 1050.39C903.752 1050.74 904.246 1050.91 904.86 1050.91C905.758 1050.91 906.466 1050.52 906.985 1049.73C907.508 1048.95 907.769 1047.84 907.769 1046.41H907.678C907.466 1046.73 907.214 1047 906.923 1047.23C906.631 1047.46 906.307 1047.64 905.951 1047.77C905.595 1047.89 905.216 1047.95 904.815 1047.95C904.148 1047.95 903.536 1047.79 902.979 1047.46C902.426 1047.13 901.983 1046.67 901.65 1046.09C901.32 1045.51 901.156 1044.84 901.156 1044.09C901.156 1043.38 901.315 1042.73 901.633 1042.14C901.955 1041.54 902.406 1041.07 902.985 1040.72C903.568 1040.36 904.254 1040.19 905.042 1040.2ZM905.042 1041.45C904.565 1041.45 904.135 1041.57 903.752 1041.81C903.373 1042.05 903.072 1042.37 902.849 1042.77C902.629 1043.16 902.519 1043.61 902.519 1044.09C902.519 1044.58 902.625 1045.02 902.837 1045.41C903.053 1045.81 903.347 1046.12 903.718 1046.36C904.093 1046.59 904.519 1046.7 904.996 1046.7C905.356 1046.7 905.692 1046.63 906.002 1046.49C906.313 1046.35 906.584 1046.16 906.815 1045.91C907.049 1045.66 907.233 1045.38 907.366 1045.06C907.498 1044.74 907.565 1044.41 907.565 1044.07C907.565 1043.61 907.455 1043.19 907.235 1042.79C907.019 1042.39 906.72 1042.07 906.337 1041.82C905.959 1041.58 905.527 1041.45 905.042 1041.45ZM911.322 1052V1050.98L915.163 1046.77C915.613 1046.28 915.985 1045.85 916.276 1045.49C916.568 1045.12 916.784 1044.78 916.924 1044.45C917.068 1044.13 917.14 1043.79 917.14 1043.43C917.14 1043.02 917.041 1042.67 916.844 1042.37C916.651 1042.07 916.386 1041.84 916.049 1041.68C915.712 1041.51 915.333 1041.43 914.913 1041.43C914.466 1041.43 914.076 1041.52 913.742 1041.71C913.413 1041.89 913.157 1042.15 912.975 1042.48C912.797 1042.81 912.708 1043.19 912.708 1043.64H911.367C911.367 1042.95 911.524 1042.36 911.839 1041.84C912.153 1041.33 912.581 1040.92 913.123 1040.64C913.668 1040.35 914.28 1040.2 914.958 1040.2C915.64 1040.2 916.244 1040.35 916.771 1040.64C917.297 1040.92 917.71 1041.31 918.009 1041.8C918.308 1042.29 918.458 1042.83 918.458 1043.43C918.458 1043.86 918.38 1044.28 918.225 1044.69C918.074 1045.09 917.808 1045.55 917.43 1046.05C917.055 1046.54 916.534 1047.15 915.867 1047.86L913.254 1050.66V1050.75H918.663V1052H911.322ZM929.646 1039.82L925.896 1053.75H924.668L928.418 1039.82H929.646ZM943.553 1040.36H944.962V1048.07C944.962 1048.86 944.775 1049.57 944.4 1050.2C944.029 1050.82 943.504 1051.31 942.826 1051.67C942.148 1052.03 941.353 1052.2 940.44 1052.2C939.527 1052.2 938.731 1052.03 938.053 1051.67C937.375 1051.31 936.849 1050.82 936.474 1050.2C936.103 1049.57 935.917 1048.86 935.917 1048.07V1040.36H937.326V1047.95C937.326 1048.52 937.451 1049.03 937.701 1049.47C937.951 1049.91 938.307 1050.26 938.769 1050.51C939.235 1050.76 939.792 1050.89 940.44 1050.89C941.087 1050.89 941.644 1050.76 942.11 1050.51C942.576 1050.26 942.932 1049.91 943.178 1049.47C943.428 1049.03 943.553 1048.52 943.553 1047.95V1040.36ZM948.935 1046.75V1052H947.594V1043.27H948.89V1044.64H949.004C949.208 1044.19 949.519 1043.84 949.935 1043.57C950.352 1043.3 950.89 1043.16 951.549 1043.16C952.14 1043.16 952.657 1043.28 953.1 1043.52C953.543 1043.76 953.888 1044.12 954.134 1044.61C954.38 1045.1 954.504 1045.71 954.504 1046.45V1052H953.163V1046.55C953.163 1045.86 952.985 1045.33 952.629 1044.94C952.272 1044.56 951.784 1044.36 951.163 1044.36C950.735 1044.36 950.352 1044.46 950.015 1044.64C949.682 1044.83 949.418 1045.1 949.225 1045.45C949.032 1045.81 948.935 1046.24 948.935 1046.75ZM960.249 1052.18C959.522 1052.18 958.88 1052 958.323 1051.63C957.766 1051.26 957.331 1050.74 957.016 1050.06C956.702 1049.38 956.545 1048.58 956.545 1047.66C956.545 1046.74 956.702 1045.95 957.016 1045.27C957.331 1044.6 957.768 1044.08 958.329 1043.71C958.889 1043.34 959.537 1043.16 960.272 1043.16C960.84 1043.16 961.289 1043.25 961.619 1043.44C961.952 1043.63 962.206 1043.84 962.38 1044.08C962.558 1044.31 962.696 1044.51 962.795 1044.66H962.908V1040.36H964.249V1052H962.954V1050.66H962.795C962.696 1050.82 962.556 1051.02 962.374 1051.26C962.192 1051.5 961.933 1051.71 961.596 1051.9C961.259 1052.09 960.81 1052.18 960.249 1052.18ZM960.431 1050.98C960.969 1050.98 961.424 1050.84 961.795 1050.56C962.166 1050.27 962.448 1049.88 962.641 1049.38C962.835 1048.88 962.931 1048.3 962.931 1047.64C962.931 1046.98 962.836 1046.41 962.647 1045.93C962.458 1045.43 962.177 1045.05 961.806 1044.78C961.435 1044.5 960.977 1044.36 960.431 1044.36C959.863 1044.36 959.389 1044.51 959.011 1044.8C958.636 1045.09 958.353 1045.48 958.164 1045.98C957.978 1046.47 957.886 1047.02 957.886 1047.64C957.886 1048.26 957.98 1048.82 958.17 1049.33C958.363 1049.83 958.647 1050.23 959.022 1050.53C959.401 1050.83 959.871 1050.98 960.431 1050.98ZM970.55 1052.18C969.71 1052.18 968.984 1052 968.374 1051.62C967.768 1051.25 967.3 1050.73 966.971 1050.06C966.645 1049.38 966.482 1048.6 966.482 1047.7C966.482 1046.81 966.645 1046.02 966.971 1045.34C967.3 1044.66 967.759 1044.12 968.346 1043.74C968.937 1043.35 969.626 1043.16 970.414 1043.16C970.869 1043.16 971.317 1043.23 971.761 1043.39C972.204 1043.54 972.607 1043.78 972.971 1044.12C973.335 1044.46 973.624 1044.91 973.84 1045.47C974.056 1046.02 974.164 1046.71 974.164 1047.52V1048.09H967.437V1046.93H972.8C972.8 1046.44 972.702 1046 972.505 1045.61C972.312 1045.23 972.035 1044.92 971.675 1044.7C971.319 1044.48 970.899 1044.36 970.414 1044.36C969.88 1044.36 969.418 1044.5 969.028 1044.76C968.641 1045.02 968.344 1045.36 968.136 1045.78C967.927 1046.2 967.823 1046.66 967.823 1047.14V1047.91C967.823 1048.57 967.937 1049.13 968.164 1049.59C968.395 1050.04 968.715 1050.39 969.124 1050.62C969.533 1050.86 970.009 1050.98 970.55 1050.98C970.903 1050.98 971.221 1050.93 971.505 1050.83C971.793 1050.73 972.041 1050.58 972.249 1050.38C972.458 1050.17 972.619 1049.92 972.732 1049.61L974.028 1049.98C973.891 1050.42 973.662 1050.8 973.34 1051.14C973.018 1051.47 972.621 1051.72 972.147 1051.91C971.674 1052.09 971.141 1052.18 970.55 1052.18ZM976.204 1052V1043.27H977.499V1044.59H977.59C977.749 1044.16 978.037 1043.81 978.454 1043.54C978.871 1043.27 979.34 1043.14 979.863 1043.14C979.961 1043.14 980.085 1043.14 980.232 1043.14C980.38 1043.15 980.492 1043.15 980.567 1043.16V1044.52C980.522 1044.51 980.418 1044.49 980.255 1044.47C980.096 1044.45 979.927 1044.43 979.749 1044.43C979.325 1044.43 978.946 1044.52 978.613 1044.7C978.283 1044.87 978.022 1045.12 977.829 1045.43C977.639 1045.73 977.545 1046.08 977.545 1046.48V1052H976.204ZM986.202 1041.61V1040.36H994.93V1041.61H991.271V1052H989.862V1041.61H986.202ZM998.263 1046.75V1052H996.923V1040.36H998.263V1044.64H998.377C998.582 1044.19 998.888 1043.83 999.298 1043.56C999.71 1043.29 1000.26 1043.16 1000.95 1043.16C1001.54 1043.16 1002.06 1043.28 1002.51 1043.52C1002.95 1043.75 1003.3 1044.11 1003.55 1044.6C1003.8 1045.09 1003.92 1045.7 1003.92 1046.45V1052H1002.58V1046.55C1002.58 1045.85 1002.4 1045.32 1002.04 1044.94C1001.69 1044.55 1001.19 1044.36 1000.56 1044.36C1000.12 1044.36 999.726 1044.46 999.377 1044.64C999.032 1044.83 998.76 1045.1 998.559 1045.45C998.362 1045.81 998.263 1046.24 998.263 1046.75ZM1010.03 1052.18C1009.19 1052.18 1008.47 1052 1007.86 1051.62C1007.25 1051.25 1006.78 1050.73 1006.46 1050.06C1006.13 1049.38 1005.97 1048.6 1005.97 1047.7C1005.97 1046.81 1006.13 1046.02 1006.46 1045.34C1006.78 1044.66 1007.24 1044.12 1007.83 1043.74C1008.42 1043.35 1009.11 1043.16 1009.9 1043.16C1010.35 1043.16 1010.8 1043.23 1011.25 1043.39C1011.69 1043.54 1012.09 1043.78 1012.46 1044.12C1012.82 1044.46 1013.11 1044.91 1013.32 1045.47C1013.54 1046.02 1013.65 1046.71 1013.65 1047.52V1048.09H1006.92V1046.93H1012.28C1012.28 1046.44 1012.19 1046 1011.99 1045.61C1011.8 1045.23 1011.52 1044.92 1011.16 1044.7C1010.8 1044.48 1010.38 1044.36 1009.9 1044.36C1009.36 1044.36 1008.9 1044.5 1008.51 1044.76C1008.13 1045.02 1007.83 1045.36 1007.62 1045.78C1007.41 1046.2 1007.31 1046.66 1007.31 1047.14V1047.91C1007.31 1048.57 1007.42 1049.13 1007.65 1049.59C1007.88 1050.04 1008.2 1050.39 1008.61 1050.62C1009.02 1050.86 1009.49 1050.98 1010.03 1050.98C1010.39 1050.98 1010.71 1050.93 1010.99 1050.83C1011.28 1050.73 1011.53 1050.58 1011.73 1050.38C1011.94 1050.17 1012.1 1049.92 1012.22 1049.61L1013.51 1049.98C1013.38 1050.42 1013.15 1050.8 1012.82 1051.14C1012.5 1051.47 1012.1 1051.72 1011.63 1051.91C1011.16 1052.09 1010.63 1052.18 1010.03 1052.18ZM1020.37 1052V1040.36H1021.78V1050.75H1027.19V1052H1020.37ZM1029.19 1052V1043.27H1030.53V1052H1029.19ZM1029.87 1041.82C1029.61 1041.82 1029.38 1041.73 1029.19 1041.55C1029.01 1041.37 1028.92 1041.16 1028.92 1040.91C1028.92 1040.66 1029.01 1040.45 1029.19 1040.27C1029.38 1040.09 1029.61 1040 1029.87 1040C1030.13 1040 1030.35 1040.09 1030.54 1040.27C1030.73 1040.45 1030.82 1040.66 1030.82 1040.91C1030.82 1041.16 1030.73 1041.37 1030.54 1041.55C1030.35 1041.73 1030.13 1041.82 1029.87 1041.82ZM1036.53 1052.18C1035.71 1052.18 1035.01 1051.99 1034.42 1051.6C1033.83 1051.22 1033.37 1050.68 1033.05 1050.01C1032.74 1049.33 1032.58 1048.55 1032.58 1047.68C1032.58 1046.8 1032.74 1046.01 1033.06 1045.34C1033.39 1044.65 1033.85 1044.12 1034.44 1043.74C1035.03 1043.35 1035.72 1043.16 1036.51 1043.16C1037.12 1043.16 1037.67 1043.27 1038.17 1043.5C1038.66 1043.73 1039.06 1044.05 1039.38 1044.45C1039.69 1044.86 1039.89 1045.34 1039.96 1045.89H1038.62C1038.52 1045.49 1038.29 1045.14 1037.94 1044.83C1037.59 1044.52 1037.12 1044.36 1036.53 1044.36C1036.01 1044.36 1035.55 1044.5 1035.16 1044.77C1034.77 1045.04 1034.46 1045.42 1034.24 1045.91C1034.02 1046.4 1033.92 1046.98 1033.92 1047.64C1033.92 1048.31 1034.02 1048.9 1034.24 1049.4C1034.45 1049.9 1034.75 1050.29 1035.14 1050.56C1035.54 1050.84 1036 1050.98 1036.53 1050.98C1036.88 1050.98 1037.2 1050.92 1037.48 1050.8C1037.76 1050.67 1038 1050.5 1038.2 1050.27C1038.4 1050.05 1038.54 1049.77 1038.62 1049.45H1039.96C1039.89 1049.97 1039.7 1050.43 1039.4 1050.85C1039.1 1051.26 1038.71 1051.58 1038.22 1051.82C1037.74 1052.06 1037.17 1052.18 1036.53 1052.18ZM1045.58 1052.18C1044.74 1052.18 1044.02 1052 1043.41 1051.62C1042.8 1051.25 1042.33 1050.73 1042 1050.06C1041.68 1049.38 1041.51 1048.6 1041.51 1047.7C1041.51 1046.81 1041.68 1046.02 1042 1045.34C1042.33 1044.66 1042.79 1044.12 1043.38 1043.74C1043.97 1043.35 1044.66 1043.16 1045.45 1043.16C1045.9 1043.16 1046.35 1043.23 1046.79 1043.39C1047.24 1043.54 1047.64 1043.78 1048 1044.12C1048.37 1044.46 1048.66 1044.91 1048.87 1045.47C1049.09 1046.02 1049.2 1046.71 1049.2 1047.52V1048.09H1042.47V1046.93H1047.83C1047.83 1046.44 1047.73 1046 1047.54 1045.61C1047.34 1045.23 1047.07 1044.92 1046.71 1044.7C1046.35 1044.48 1045.93 1044.36 1045.45 1044.36C1044.91 1044.36 1044.45 1044.5 1044.06 1044.76C1043.67 1045.02 1043.38 1045.36 1043.17 1045.78C1042.96 1046.2 1042.85 1046.66 1042.85 1047.14V1047.91C1042.85 1048.57 1042.97 1049.13 1043.2 1049.59C1043.43 1050.04 1043.75 1050.39 1044.16 1050.62C1044.56 1050.86 1045.04 1050.98 1045.58 1050.98C1045.93 1050.98 1046.25 1050.93 1046.54 1050.83C1046.82 1050.73 1047.07 1050.58 1047.28 1050.38C1047.49 1050.17 1047.65 1049.92 1047.76 1049.61L1049.06 1049.98C1048.92 1050.42 1048.69 1050.8 1048.37 1051.14C1048.05 1051.47 1047.65 1051.72 1047.18 1051.91C1046.7 1052.09 1046.17 1052.18 1045.58 1052.18ZM1052.58 1046.75V1052H1051.24V1043.27H1052.53V1044.64H1052.64C1052.85 1044.19 1053.16 1043.84 1053.58 1043.57C1053.99 1043.3 1054.53 1043.16 1055.19 1043.16C1055.78 1043.16 1056.3 1043.28 1056.74 1043.52C1057.18 1043.76 1057.53 1044.12 1057.77 1044.61C1058.02 1045.1 1058.14 1045.71 1058.14 1046.45V1052H1056.8V1046.55C1056.8 1045.86 1056.63 1045.33 1056.27 1044.94C1055.91 1044.56 1055.42 1044.36 1054.8 1044.36C1054.38 1044.36 1053.99 1044.46 1053.66 1044.64C1053.32 1044.83 1053.06 1045.1 1052.87 1045.45C1052.67 1045.81 1052.58 1046.24 1052.58 1046.75ZM1066.78 1045.23L1065.57 1045.57C1065.5 1045.37 1065.38 1045.17 1065.24 1044.98C1065.09 1044.79 1064.9 1044.63 1064.65 1044.51C1064.4 1044.38 1064.08 1044.32 1063.69 1044.32C1063.15 1044.32 1062.71 1044.44 1062.35 1044.69C1062 1044.93 1061.82 1045.24 1061.82 1045.61C1061.82 1045.95 1061.94 1046.21 1062.19 1046.4C1062.43 1046.6 1062.81 1046.76 1063.32 1046.89L1064.62 1047.2C1065.4 1047.39 1065.98 1047.68 1066.36 1048.07C1066.74 1048.46 1066.94 1048.96 1066.94 1049.57C1066.94 1050.07 1066.79 1050.52 1066.5 1050.91C1066.22 1051.3 1065.82 1051.61 1065.31 1051.84C1064.8 1052.07 1064.2 1052.18 1063.53 1052.18C1062.64 1052.18 1061.9 1051.99 1061.32 1051.6C1060.73 1051.22 1060.36 1050.65 1060.21 1049.91L1061.48 1049.59C1061.6 1050.06 1061.83 1050.41 1062.17 1050.65C1062.51 1050.88 1062.95 1051 1063.5 1051C1064.13 1051 1064.62 1050.87 1064.99 1050.6C1065.36 1050.33 1065.55 1050.01 1065.55 1049.64C1065.55 1049.33 1065.44 1049.08 1065.23 1048.88C1065.02 1048.67 1064.69 1048.51 1064.25 1048.41L1062.8 1048.07C1062 1047.88 1061.41 1047.59 1061.04 1047.19C1060.67 1046.79 1060.48 1046.28 1060.48 1045.68C1060.48 1045.19 1060.62 1044.75 1060.9 1044.38C1061.18 1044 1061.56 1043.7 1062.04 1043.48C1062.52 1043.27 1063.07 1043.16 1063.69 1043.16C1064.55 1043.16 1065.23 1043.35 1065.72 1043.73C1066.22 1044.11 1066.57 1044.61 1066.78 1045.23ZM1072.61 1052.18C1071.77 1052.18 1071.05 1052 1070.44 1051.62C1069.83 1051.25 1069.36 1050.73 1069.03 1050.06C1068.71 1049.38 1068.54 1048.6 1068.54 1047.7C1068.54 1046.81 1068.71 1046.02 1069.03 1045.34C1069.36 1044.66 1069.82 1044.12 1070.41 1043.74C1071 1043.35 1071.69 1043.16 1072.48 1043.16C1072.93 1043.16 1073.38 1043.23 1073.82 1043.39C1074.27 1043.54 1074.67 1043.78 1075.03 1044.12C1075.4 1044.46 1075.69 1044.91 1075.9 1045.47C1076.12 1046.02 1076.23 1046.71 1076.23 1047.52V1048.09H1069.5V1046.93H1074.86C1074.86 1046.44 1074.76 1046 1074.57 1045.61C1074.37 1045.23 1074.1 1044.92 1073.74 1044.7C1073.38 1044.48 1072.96 1044.36 1072.48 1044.36C1071.94 1044.36 1071.48 1044.5 1071.09 1044.76C1070.7 1045.02 1070.41 1045.36 1070.2 1045.78C1069.99 1046.2 1069.89 1046.66 1069.89 1047.14V1047.91C1069.89 1048.57 1070 1049.13 1070.23 1049.59C1070.46 1050.04 1070.78 1050.39 1071.19 1050.62C1071.6 1050.86 1072.07 1050.98 1072.61 1050.98C1072.97 1050.98 1073.28 1050.93 1073.57 1050.83C1073.86 1050.73 1074.1 1050.58 1074.31 1050.38C1074.52 1050.17 1074.68 1049.92 1074.79 1049.61L1076.09 1049.98C1075.95 1050.42 1075.72 1050.8 1075.4 1051.14C1075.08 1051.47 1074.68 1051.72 1074.21 1051.91C1073.74 1052.09 1073.2 1052.18 1072.61 1052.18ZM1086.31 1052.18C1085.52 1052.18 1084.83 1051.99 1084.24 1051.62C1083.65 1051.24 1083.18 1050.72 1082.85 1050.05C1082.52 1049.37 1082.36 1048.58 1082.36 1047.68C1082.36 1046.77 1082.52 1045.98 1082.85 1045.3C1083.18 1044.62 1083.65 1044.1 1084.24 1043.72C1084.83 1043.35 1085.52 1043.16 1086.31 1043.16C1087.1 1043.16 1087.79 1043.35 1088.38 1043.72C1088.97 1044.1 1089.44 1044.62 1089.77 1045.3C1090.1 1045.98 1090.27 1046.77 1090.27 1047.68C1090.27 1048.58 1090.1 1049.37 1089.77 1050.05C1089.44 1050.72 1088.97 1051.24 1088.38 1051.62C1087.79 1051.99 1087.1 1052.18 1086.31 1052.18ZM1086.31 1050.98C1086.91 1050.98 1087.4 1050.82 1087.79 1050.52C1088.18 1050.21 1088.46 1049.81 1088.65 1049.31C1088.83 1048.81 1088.93 1048.27 1088.93 1047.68C1088.93 1047.1 1088.83 1046.55 1088.65 1046.05C1088.46 1045.55 1088.18 1045.14 1087.79 1044.83C1087.4 1044.52 1086.91 1044.36 1086.31 1044.36C1085.71 1044.36 1085.22 1044.52 1084.83 1044.83C1084.45 1045.14 1084.16 1045.55 1083.98 1046.05C1083.79 1046.55 1083.7 1047.1 1083.7 1047.68C1083.7 1048.27 1083.79 1048.81 1083.98 1049.31C1084.16 1049.81 1084.45 1050.21 1084.83 1050.52C1085.22 1050.82 1085.71 1050.98 1086.31 1050.98ZM1096.2 1043.27V1044.41H1091.5V1043.27H1096.2ZM1092.9 1052V1042.07C1092.9 1041.57 1093.02 1041.15 1093.26 1040.82C1093.49 1040.48 1093.8 1040.23 1094.17 1040.07C1094.55 1039.9 1094.94 1039.82 1095.36 1039.82C1095.69 1039.82 1095.96 1039.84 1096.17 1039.9C1096.37 1039.95 1096.53 1040 1096.63 1040.05L1096.25 1041.2C1096.18 1041.18 1096.08 1041.15 1095.96 1041.12C1095.84 1041.09 1095.69 1041.07 1095.5 1041.07C1095.05 1041.07 1094.73 1041.18 1094.53 1041.4C1094.34 1041.63 1094.25 1041.95 1094.25 1042.39V1052H1092.9ZM1112.12 1044H1110.72C1110.63 1043.59 1110.49 1043.24 1110.28 1042.93C1110.07 1042.62 1109.82 1042.37 1109.53 1042.16C1109.24 1041.95 1108.91 1041.79 1108.56 1041.68C1108.2 1041.58 1107.83 1041.52 1107.44 1041.52C1106.74 1041.52 1106.1 1041.7 1105.53 1042.06C1104.96 1042.41 1104.51 1042.94 1104.17 1043.63C1103.84 1044.32 1103.67 1045.17 1103.67 1046.18C1103.67 1047.19 1103.84 1048.04 1104.17 1048.73C1104.51 1049.43 1104.96 1049.95 1105.53 1050.31C1106.1 1050.66 1106.74 1050.84 1107.44 1050.84C1107.83 1050.84 1108.2 1050.79 1108.56 1050.68C1108.91 1050.58 1109.24 1050.42 1109.53 1050.21C1109.82 1050 1110.07 1049.74 1110.28 1049.43C1110.49 1049.12 1110.63 1048.77 1110.72 1048.36H1112.12C1112.02 1048.96 1111.83 1049.49 1111.54 1049.96C1111.26 1050.43 1110.92 1050.83 1110.5 1051.16C1110.08 1051.48 1109.61 1051.73 1109.1 1051.9C1108.58 1052.07 1108.03 1052.16 1107.44 1052.16C1106.45 1052.16 1105.57 1051.92 1104.79 1051.43C1104.02 1050.95 1103.41 1050.26 1102.97 1049.36C1102.53 1048.47 1102.31 1047.41 1102.31 1046.18C1102.31 1044.95 1102.53 1043.89 1102.97 1043C1103.41 1042.11 1104.02 1041.42 1104.79 1040.93C1105.57 1040.45 1106.45 1040.2 1107.44 1040.2C1108.03 1040.2 1108.58 1040.29 1109.1 1040.46C1109.61 1040.63 1110.08 1040.88 1110.5 1041.21C1110.92 1041.54 1111.26 1041.93 1111.54 1042.4C1111.83 1042.87 1112.02 1043.4 1112.12 1044ZM1123.76 1044H1122.36C1122.27 1043.59 1122.13 1043.24 1121.92 1042.93C1121.71 1042.62 1121.46 1042.37 1121.17 1042.16C1120.88 1041.95 1120.55 1041.79 1120.2 1041.68C1119.84 1041.58 1119.47 1041.52 1119.08 1041.52C1118.38 1041.52 1117.74 1041.7 1117.17 1042.06C1116.6 1042.41 1116.15 1042.94 1115.81 1043.63C1115.48 1044.32 1115.31 1045.17 1115.31 1046.18C1115.31 1047.19 1115.48 1048.04 1115.81 1048.73C1116.15 1049.43 1116.6 1049.95 1117.17 1050.31C1117.74 1050.66 1118.38 1050.84 1119.08 1050.84C1119.47 1050.84 1119.84 1050.79 1120.2 1050.68C1120.55 1050.58 1120.88 1050.42 1121.17 1050.21C1121.46 1050 1121.71 1049.74 1121.92 1049.43C1122.13 1049.12 1122.27 1048.77 1122.36 1048.36H1123.76C1123.66 1048.96 1123.47 1049.49 1123.19 1049.96C1122.91 1050.43 1122.56 1050.83 1122.14 1051.16C1121.72 1051.48 1121.26 1051.73 1120.74 1051.9C1120.22 1052.07 1119.67 1052.16 1119.08 1052.16C1118.09 1052.16 1117.21 1051.92 1116.44 1051.43C1115.66 1050.95 1115.05 1050.26 1114.61 1049.36C1114.17 1048.47 1113.95 1047.41 1113.95 1046.18C1113.95 1044.95 1114.17 1043.89 1114.61 1043C1115.05 1042.11 1115.66 1041.42 1116.44 1040.93C1117.21 1040.45 1118.09 1040.2 1119.08 1040.2C1119.67 1040.2 1120.22 1040.29 1120.74 1040.46C1121.26 1040.63 1121.72 1040.88 1122.14 1041.21C1122.56 1041.54 1122.91 1041.93 1123.19 1042.4C1123.47 1042.87 1123.66 1043.4 1123.76 1044ZM1134.27 1052.16C1133.52 1052.16 1132.85 1052.03 1132.26 1051.77C1131.68 1051.52 1131.22 1051.16 1130.87 1050.7C1130.53 1050.24 1130.34 1049.7 1130.31 1049.09H1131.75C1131.78 1049.47 1131.91 1049.79 1132.13 1050.06C1132.36 1050.33 1132.66 1050.54 1133.02 1050.69C1133.39 1050.84 1133.8 1050.91 1134.25 1050.91C1134.75 1050.91 1135.19 1050.82 1135.58 1050.65C1135.96 1050.47 1136.27 1050.23 1136.49 1049.92C1136.7 1049.61 1136.81 1049.25 1136.81 1048.84C1136.81 1048.41 1136.71 1048.04 1136.5 1047.71C1136.28 1047.38 1135.97 1047.12 1135.56 1046.94C1135.16 1046.75 1134.66 1046.66 1134.06 1046.66H1133.13V1045.41H1134.06C1134.53 1045.41 1134.93 1045.33 1135.28 1045.16C1135.63 1044.99 1135.91 1044.76 1136.1 1044.45C1136.31 1044.15 1136.41 1043.8 1136.41 1043.39C1136.41 1042.99 1136.32 1042.65 1136.14 1042.36C1135.97 1042.07 1135.72 1041.84 1135.41 1041.68C1135.09 1041.51 1134.72 1041.43 1134.29 1041.43C1133.89 1041.43 1133.51 1041.51 1133.16 1041.65C1132.8 1041.8 1132.52 1042.01 1132.29 1042.28C1132.07 1042.56 1131.95 1042.89 1131.93 1043.27H1130.56C1130.59 1042.66 1130.77 1042.13 1131.12 1041.67C1131.46 1041.21 1131.91 1040.85 1132.47 1040.59C1133.03 1040.33 1133.64 1040.2 1134.31 1040.2C1135.03 1040.2 1135.65 1040.35 1136.17 1040.64C1136.68 1040.93 1137.08 1041.31 1137.35 1041.78C1137.63 1042.26 1137.77 1042.77 1137.77 1043.32C1137.77 1043.97 1137.6 1044.53 1137.25 1044.99C1136.91 1045.46 1136.45 1045.78 1135.86 1045.95V1046.05C1136.59 1046.17 1137.17 1046.48 1137.58 1046.98C1137.99 1047.48 1138.2 1048.1 1138.2 1048.84C1138.2 1049.47 1138.03 1050.04 1137.68 1050.55C1137.34 1051.05 1136.88 1051.44 1136.29 1051.73C1135.7 1052.02 1135.02 1052.16 1134.27 1052.16ZM1141.17 1052.09C1140.89 1052.09 1140.64 1051.99 1140.44 1051.79C1140.24 1051.59 1140.14 1051.35 1140.14 1051.07C1140.14 1050.79 1140.24 1050.55 1140.44 1050.35C1140.64 1050.15 1140.89 1050.05 1141.17 1050.05C1141.45 1050.05 1141.69 1050.15 1141.89 1050.35C1142.09 1050.55 1142.19 1050.79 1142.19 1051.07C1142.19 1051.25 1142.14 1051.42 1142.05 1051.58C1141.96 1051.73 1141.83 1051.86 1141.68 1051.95C1141.53 1052.05 1141.35 1052.09 1141.17 1052.09ZM1147.96 1052.16C1147.1 1052.16 1146.38 1051.93 1145.77 1051.46C1145.17 1050.99 1144.71 1050.31 1144.39 1049.42C1144.07 1048.53 1143.92 1047.45 1143.92 1046.18C1143.92 1044.92 1144.07 1043.85 1144.39 1042.96C1144.71 1042.07 1145.18 1041.38 1145.78 1040.91C1146.39 1040.44 1147.11 1040.2 1147.96 1040.2C1148.81 1040.2 1149.53 1040.44 1150.14 1040.91C1150.74 1041.38 1151.21 1042.07 1151.52 1042.96C1151.85 1043.85 1152.01 1044.92 1152.01 1046.18C1152.01 1047.45 1151.85 1048.53 1151.53 1049.42C1151.21 1050.31 1150.75 1050.99 1150.15 1051.46C1149.55 1051.93 1148.82 1052.16 1147.96 1052.16ZM1147.96 1050.91C1148.81 1050.91 1149.47 1050.5 1149.94 1049.68C1150.41 1048.86 1150.64 1047.7 1150.64 1046.18C1150.64 1045.17 1150.53 1044.32 1150.32 1043.61C1150.11 1042.9 1149.8 1042.36 1149.4 1041.99C1149 1041.62 1148.52 1041.43 1147.96 1041.43C1147.12 1041.43 1146.46 1041.85 1145.99 1042.68C1145.52 1043.5 1145.28 1044.67 1145.28 1046.18C1145.28 1047.19 1145.39 1048.05 1145.6 1048.75C1145.81 1049.45 1146.11 1049.99 1146.51 1050.36C1146.91 1050.73 1147.4 1050.91 1147.96 1050.91Z"/><path fill="#263E2A" d="M448.909 382.27L498.857 428.12C499.114 428.356 499.296 428.665 499.381 429.012C499.467 429.359 499.452 429.73 499.34 430.084L450.507 583.544C450.403 583.869 450.22 584.167 449.976 584.412C449.732 584.656 449.434 584.838 449.111 584.941C448.788 585.043 448.451 585.063 448.13 584.998C447.81 584.933 447.517 584.786 447.28 584.57L397.332 538.72C397.075 538.484 396.893 538.175 396.808 537.828C396.723 537.482 396.737 537.11 396.849 536.757L445.682 383.296C445.787 382.972 445.97 382.674 446.214 382.431C446.459 382.187 446.756 382.005 447.079 381.903C447.401 381.8 447.739 381.78 448.059 381.845C448.379 381.909 448.671 382.055 448.909 382.27ZM495.256 430.322L448.407 387.318L400.931 536.516L447.779 579.52L495.256 430.322Z"/><path fill="#263E2A" d="M498.856 428.121L598.753 519.82C598.989 520.037 599.161 520.316 599.254 520.629C599.346 520.942 599.355 521.28 599.281 521.611C599.206 521.941 599.051 522.253 598.828 522.517C598.606 522.781 598.324 522.989 598.009 523.12L449.28 584.881C447.878 585.461 446.338 584.048 446.797 582.601L495.629 429.141C495.733 428.816 495.916 428.518 496.159 428.273C496.402 428.029 496.699 427.846 497.021 427.741C497.346 427.641 497.684 427.623 498.005 427.689C498.326 427.756 498.619 427.904 498.856 428.121ZM593.764 520.749L498.357 433.171L451.719 579.734L593.764 520.749Z"/><path fill="#263E2A" d="M1756.51 660.671L1723.97 601.19C1723.8 600.883 1723.73 600.533 1723.76 600.177C1723.79 599.821 1723.92 599.474 1724.14 599.175L1819.75 469.584C1819.95 469.31 1820.22 469.086 1820.53 468.933C1820.84 468.78 1821.18 468.704 1821.52 468.71C1821.86 468.717 1822.18 468.807 1822.47 468.972C1822.75 469.136 1822.98 469.37 1823.13 469.651L1855.67 529.132C1855.84 529.438 1855.92 529.789 1855.88 530.145C1855.85 530.501 1855.72 530.848 1855.5 531.147L1759.89 660.738C1759.69 661.011 1759.42 661.234 1759.11 661.386C1758.8 661.538 1758.46 661.615 1758.12 661.608C1757.78 661.601 1757.46 661.512 1757.18 661.348C1756.89 661.184 1756.66 660.951 1756.51 660.671ZM1728.08 600.263L1758.61 656.054L1851.56 530.062L1821.04 474.272L1728.08 600.263Z"/><path fill="#263E2A" d="M1622.99 601.189L1557.9 482.227C1557.75 481.946 1557.68 481.626 1557.69 481.3C1557.7 480.974 1557.8 480.651 1557.98 480.362C1558.16 480.073 1558.4 479.827 1558.7 479.649C1559 479.47 1559.33 479.365 1559.67 479.342L1720.36 468.713C1721.87 468.614 1722.88 470.448 1721.98 471.67L1626.37 601.262C1626.17 601.535 1625.9 601.759 1625.59 601.913C1625.28 602.066 1624.94 602.144 1624.6 602.139C1624.26 602.13 1623.94 602.038 1623.65 601.872C1623.37 601.706 1623.14 601.471 1622.99 601.189ZM1562.93 482.953L1625.08 596.569L1716.39 472.801L1562.93 482.953Z"/><path fill="#263E2A" d="M586.301 311.876L583.229 244.145C583.213 243.796 583.302 243.449 583.486 243.143C583.67 242.837 583.942 242.584 584.271 242.412L727.124 168.062C727.427 167.906 727.767 167.823 728.112 167.822C728.458 167.821 728.797 167.902 729.099 168.057C729.4 168.212 729.653 168.436 729.835 168.708C730.016 168.98 730.119 169.291 730.135 169.611L733.207 237.343C733.223 237.692 733.134 238.039 732.95 238.345C732.765 238.651 732.494 238.904 732.165 239.075L589.312 313.425C589.009 313.581 588.669 313.663 588.324 313.663C587.979 313.663 587.64 313.582 587.339 313.428C587.038 313.273 586.785 313.049 586.603 312.778C586.422 312.506 586.317 312.196 586.301 311.876ZM587.335 245.124L590.216 308.652L729.101 236.368L726.22 172.839L587.335 245.124Z"/><path fill="#263E2A" d="M583.23 244.145L577.086 108.682C577.072 108.361 577.146 108.042 577.301 107.755C577.457 107.468 577.689 107.221 577.974 107.04C578.26 106.858 578.591 106.747 578.935 106.716C579.279 106.686 579.625 106.738 579.94 106.867L728.937 167.98C730.34 168.557 730.435 170.646 729.09 171.348L586.237 245.698C585.934 245.854 585.595 245.937 585.25 245.939C584.905 245.941 584.565 245.861 584.263 245.708C583.962 245.55 583.71 245.324 583.529 245.051C583.348 244.778 583.245 244.466 583.23 244.145ZM581.278 111.542L587.145 240.917L723.577 169.909L581.278 111.542Z"/><path fill="#263E2A" d="M293.127 303.537L243.975 256.836C243.721 256.595 243.545 256.283 243.466 255.935C243.387 255.587 243.407 255.216 243.526 254.864L294.989 102.266C295.099 101.943 295.287 101.648 295.535 101.407C295.784 101.167 296.085 100.99 296.409 100.893C296.734 100.796 297.072 100.782 297.391 100.853C297.71 100.923 298 101.075 298.233 101.296L347.386 147.997C347.639 148.238 347.816 148.55 347.895 148.898C347.974 149.246 347.954 149.617 347.835 149.969L296.371 302.567C296.261 302.889 296.073 303.184 295.824 303.423C295.576 303.663 295.275 303.839 294.951 303.936C294.627 304.033 294.289 304.047 293.97 303.978C293.651 303.908 293.361 303.756 293.127 303.537ZM247.613 254.696L293.716 298.499L343.75 150.14L297.648 106.336L247.613 254.696Z"/><path fill="#263E2A" d="M210.975 508.769L112.67 415.366C112.438 415.144 112.27 414.863 112.183 414.548C112.096 414.233 112.092 413.895 112.172 413.566C112.253 413.237 112.414 412.928 112.641 412.667C112.868 412.407 113.153 412.205 113.47 412.079L263.239 352.884C264.65 352.328 266.166 353.768 265.683 355.206L214.219 507.804C214.109 508.127 213.922 508.422 213.675 508.662C213.427 508.903 213.127 509.081 212.803 509.179C212.477 509.274 212.138 509.286 211.819 509.215C211.499 509.143 211.209 508.989 210.975 508.769ZM117.674 414.523L211.561 503.728L260.711 357.988L117.674 414.523Z"/><path fill="#263E2A" d="M203.526 915.53L212.261 848.294C212.306 847.947 212.454 847.621 212.689 847.352C212.923 847.082 213.235 846.88 213.589 846.769L367.181 798.353C367.507 798.251 367.856 798.228 368.196 798.288C368.537 798.347 368.857 798.485 369.127 798.69C369.397 798.895 369.607 799.16 369.739 799.459C369.87 799.758 369.918 800.083 369.878 800.401L361.142 867.637C361.097 867.983 360.949 868.31 360.715 868.579C360.48 868.848 360.169 869.05 359.815 869.162L206.222 917.578C205.897 917.679 205.548 917.7 205.208 917.641C204.868 917.581 204.548 917.443 204.279 917.238C204.009 917.033 203.799 916.769 203.667 916.47C203.535 916.172 203.487 915.848 203.526 915.53ZM216.135 849.971L207.942 913.035L357.268 865.964L365.461 802.9L216.135 849.971Z"/><path fill="#263E2A" d="M212.262 848.294L229.733 713.822C229.775 713.504 229.903 713.203 230.106 712.947C230.309 712.691 230.58 712.488 230.893 712.359C231.206 712.23 231.551 712.178 231.895 712.207C232.239 712.237 232.571 712.348 232.859 712.53L368.981 798.586C370.262 799.399 369.993 801.472 368.546 801.93L214.954 850.345C214.629 850.447 214.28 850.47 213.94 850.412C213.6 850.354 213.279 850.216 213.008 850.013C212.739 849.806 212.53 849.539 212.399 849.239C212.269 848.938 212.222 848.613 212.262 848.294ZM233.364 717.366L216.678 845.795L363.368 799.555L233.364 717.366Z"/><path fill="#263E2A" d="M1472.98 423.858L1407.92 404.768C1407.59 404.67 1407.29 404.473 1407.06 404.199C1406.83 403.926 1406.68 403.586 1406.62 403.219L1382.69 243.964C1382.64 243.627 1382.67 243.279 1382.79 242.952C1382.9 242.625 1383.08 242.33 1383.33 242.095C1383.57 241.86 1383.87 241.694 1384.18 241.61C1384.5 241.527 1384.83 241.53 1385.13 241.62L1450.19 260.709C1450.53 260.808 1450.83 261.005 1451.06 261.278C1451.29 261.552 1451.44 261.891 1451.49 262.258L1475.42 421.513C1475.47 421.85 1475.44 422.198 1475.33 422.525C1475.22 422.851 1475.03 423.145 1474.78 423.38C1474.54 423.614 1474.25 423.781 1473.93 423.865C1473.62 423.948 1473.29 423.946 1472.98 423.858ZM1410.18 401.202L1471.2 419.107L1447.94 264.276L1386.92 246.371L1410.18 401.202Z"/><path fill="#263E2A" d="M1407.92 404.767L1277.81 366.588C1277.5 366.497 1277.22 366.323 1277 366.083C1276.78 365.843 1276.62 365.544 1276.54 365.214C1276.46 364.885 1276.46 364.536 1276.55 364.201C1276.63 363.865 1276.79 363.555 1277.02 363.299L1383.2 242.223C1384.2 241.084 1386.21 241.672 1386.44 243.173L1410.37 402.427C1410.42 402.764 1410.39 403.112 1410.28 403.439C1410.16 403.766 1409.98 404.062 1409.74 404.297C1409.49 404.531 1409.19 404.696 1408.88 404.779C1408.56 404.861 1408.23 404.857 1407.92 404.767ZM1281.87 363.552L1406.14 400.016L1383.29 247.919L1281.87 363.552Z"/><path fill="#263E2A" d="M838.909 367.27L888.857 413.12C889.114 413.356 889.296 413.665 889.381 414.012C889.467 414.359 889.452 414.73 889.34 415.084L840.507 568.544C840.403 568.869 840.22 569.167 839.976 569.412C839.732 569.656 839.434 569.838 839.111 569.941C838.788 570.043 838.451 570.063 838.13 569.998C837.81 569.933 837.517 569.786 837.28 569.57L787.332 523.72C787.075 523.484 786.893 523.175 786.808 522.828C786.722 522.482 786.737 522.11 786.849 521.757L835.682 368.296C835.787 367.972 835.97 367.674 836.214 367.431C836.459 367.187 836.756 367.005 837.079 366.903C837.401 366.8 837.739 366.78 838.059 366.845C838.379 366.909 838.671 367.055 838.909 367.27ZM885.256 415.322L838.407 372.318L790.931 521.516L837.779 564.52L885.256 415.322Z"/><path fill="#263E2A" d="M888.856 413.121L988.753 504.82C988.989 505.037 989.161 505.316 989.254 505.629C989.346 505.942 989.355 506.28 989.281 506.611C989.206 506.941 989.051 507.253 988.828 507.517C988.606 507.781 988.324 507.989 988.009 508.12L839.28 569.881C837.878 570.461 836.338 569.048 836.797 567.601L885.629 414.141C885.733 413.816 885.916 413.518 886.159 413.273C886.402 413.029 886.699 412.846 887.021 412.741C887.346 412.641 887.684 412.623 888.005 412.689C888.326 412.756 888.619 412.904 888.856 413.121ZM983.764 505.749L888.357 418.171L841.719 564.734L983.764 505.749Z"/><path fill="#263E2A" d="M637.909 651.477L687.857 697.327C688.115 697.563 688.296 697.872 688.381 698.219C688.467 698.565 688.452 698.936 688.34 699.29L639.507 852.751C639.403 853.075 639.22 853.374 638.976 853.618C638.732 853.863 638.434 854.045 638.111 854.147C637.788 854.25 637.451 854.27 637.13 854.205C636.81 854.14 636.517 853.993 636.28 853.776L586.332 807.927C586.075 807.69 585.893 807.382 585.808 807.035C585.723 806.688 585.737 806.317 585.849 805.963L634.682 652.503C634.787 652.179 634.97 651.881 635.215 651.637C635.459 651.394 635.756 651.212 636.079 651.109C636.402 651.007 636.739 650.987 637.059 651.051C637.379 651.115 637.672 651.262 637.909 651.477ZM684.256 699.529L637.407 656.524L589.931 805.722L636.779 848.727L684.256 699.529Z"/><path fill="#263E2A" d="M899.043 697.327L998.939 789.027C999.175 789.244 999.347 789.522 999.44 789.836C999.532 790.149 999.542 790.487 999.467 790.817C999.393 791.148 999.237 791.46 999.014 791.724C998.792 791.988 998.51 792.195 998.195 792.326L849.466 854.088C848.064 854.668 846.524 853.254 846.983 851.808L895.816 698.347C895.92 698.023 896.102 697.725 896.345 697.48C896.589 697.235 896.885 697.052 897.207 696.948C897.532 696.848 897.87 696.83 898.191 696.896C898.512 696.962 898.805 697.111 899.043 697.327ZM993.95 789.955L898.544 702.377L851.906 848.941L993.95 789.955Z"/><path fill="#263E2A" d="M1127.42 719.339L1174.53 670.575C1174.77 670.324 1175.08 670.15 1175.43 670.073C1175.78 669.997 1176.15 670.021 1176.5 670.142L1328.67 722.867C1328.99 722.979 1329.28 723.17 1329.52 723.42C1329.76 723.671 1329.93 723.973 1330.03 724.298C1330.12 724.624 1330.13 724.962 1330.06 725.28C1329.99 725.599 1329.83 725.888 1329.61 726.119L1282.5 774.883C1282.26 775.135 1281.95 775.308 1281.6 775.385C1281.25 775.461 1280.88 775.438 1280.53 775.316L1128.36 722.591C1128.04 722.478 1127.75 722.287 1127.51 722.037C1127.27 721.786 1127.1 721.484 1127 721.159C1126.91 720.834 1126.9 720.497 1126.97 720.178C1127.04 719.86 1127.2 719.571 1127.42 719.339ZM1176.64 674.231L1132.45 719.969L1280.39 771.23L1324.58 725.492L1176.64 674.231Z"/><path fill="#263E2A" d="M1174.53 670.575L1268.74 573.047C1268.96 572.816 1269.25 572.651 1269.56 572.567C1269.88 572.482 1270.21 572.481 1270.54 572.564C1270.87 572.647 1271.18 572.811 1271.44 573.04C1271.7 573.269 1271.9 573.556 1272.02 573.874L1329.97 724.128C1330.52 725.544 1329.07 727.048 1327.63 726.552L1175.46 673.827C1175.14 673.715 1174.85 673.526 1174.61 673.276C1174.37 673.026 1174.2 672.725 1174.1 672.4C1174.01 672.073 1174 671.735 1174.07 671.416C1174.15 671.097 1174.3 670.807 1174.53 670.575ZM1269.54 578.058L1179.56 671.203L1324.89 721.558L1269.54 578.058Z"/><path fill="#263E2A" d="M1689 911.519L1622.54 924.975C1622.2 925.044 1621.85 925.009 1621.51 924.875C1621.18 924.74 1620.89 924.51 1620.67 924.211L1525.23 794.498C1525.03 794.223 1524.89 793.9 1524.84 793.558C1524.79 793.217 1524.81 792.869 1524.92 792.548C1525.03 792.226 1525.21 791.941 1525.45 791.72C1525.69 791.499 1525.98 791.349 1526.3 791.285L1592.75 777.829C1593.09 777.759 1593.45 777.794 1593.78 777.929C1594.11 778.064 1594.4 778.293 1594.62 778.592L1690.06 908.305C1690.26 908.581 1690.4 908.904 1690.45 909.245C1690.5 909.586 1690.48 909.933 1690.37 910.254C1690.26 910.576 1690.08 910.86 1689.84 911.081C1689.6 911.303 1689.31 911.453 1689 911.519ZM1622.88 920.767L1685.21 908.146L1592.42 782.036L1530.09 794.657L1622.88 920.767Z"/><path fill="#263E2A" d="M1622.54 924.974L1489.64 951.886C1489.32 951.949 1489 951.925 1488.69 951.815C1488.38 951.706 1488.1 951.515 1487.88 951.26C1487.66 951.006 1487.5 950.696 1487.41 950.361C1487.33 950.026 1487.33 949.676 1487.41 949.344L1524.87 792.72C1525.22 791.244 1527.27 790.829 1528.17 792.05L1623.62 921.764C1623.82 922.038 1623.95 922.361 1624.01 922.702C1624.06 923.043 1624.03 923.39 1623.93 923.712C1623.82 924.034 1623.64 924.318 1623.39 924.539C1623.15 924.759 1622.86 924.909 1622.54 924.974ZM1491.82 947.304L1618.75 921.602L1527.6 797.718L1491.82 947.304Z"/><path fill="#263E2A" d="M946.848 274.541L991.044 223.124C991.272 222.859 991.575 222.667 991.919 222.571C992.262 222.474 992.634 222.476 992.991 222.577L1147.96 266.378C1148.29 266.472 1148.59 266.645 1148.85 266.881C1149.1 267.117 1149.29 267.409 1149.4 267.728C1149.52 268.048 1149.55 268.384 1149.49 268.707C1149.44 269.029 1149.3 269.326 1149.09 269.57L1104.9 320.987C1104.67 321.252 1104.37 321.444 1104.02 321.54C1103.68 321.637 1103.31 321.635 1102.95 321.534L947.978 277.732C947.651 277.638 947.348 277.465 947.096 277.228C946.845 276.992 946.653 276.701 946.54 276.382C946.427 276.063 946.396 275.726 946.45 275.404C946.504 275.082 946.641 274.785 946.848 274.541ZM993.363 226.651L951.909 274.878L1102.58 317.462L1144.03 269.236L993.363 226.651Z"/><path fill="#263E2A" d="M991.045 223.124L1079.44 120.29C1079.65 120.047 1079.92 119.866 1080.23 119.763C1080.54 119.661 1080.88 119.64 1081.21 119.704C1081.54 119.767 1081.86 119.913 1082.13 120.127C1082.4 120.341 1082.62 120.616 1082.76 120.926L1149.34 267.561C1149.96 268.943 1148.6 270.529 1147.14 270.118L992.17 226.316C991.842 226.223 991.538 226.051 991.286 225.815C991.033 225.58 990.84 225.289 990.726 224.971C990.615 224.65 990.586 224.312 990.642 223.989C990.697 223.666 990.836 223.369 991.045 223.124ZM1080.53 125.246L996.108 223.458L1144.11 265.291L1080.53 125.246Z"/><path fill="#88DF95" d="M437.909 369.27L487.857 415.12C488.114 415.356 488.296 415.665 488.381 416.012C488.467 416.359 488.452 416.73 488.34 417.084L439.507 570.544C439.403 570.869 439.22 571.167 438.976 571.412C438.732 571.656 438.434 571.838 438.111 571.941C437.788 572.043 437.451 572.063 437.13 571.998C436.81 571.933 436.517 571.786 436.28 571.57L386.332 525.72C386.075 525.484 385.893 525.175 385.808 524.828C385.723 524.482 385.737 524.11 385.849 523.757L434.682 370.296C434.787 369.972 434.97 369.674 435.214 369.431C435.459 369.187 435.756 369.005 436.079 368.903C436.401 368.8 436.739 368.78 437.059 368.845C437.379 368.909 437.671 369.055 437.909 369.27ZM484.256 417.322L437.407 374.318L389.931 523.516L436.779 566.52L484.256 417.322Z"/><path fill="#88DF95" d="M487.856 415.121L587.753 506.82C587.989 507.037 588.161 507.316 588.254 507.629C588.346 507.942 588.355 508.28 588.281 508.611C588.206 508.941 588.051 509.253 587.828 509.517C587.606 509.781 587.324 509.989 587.009 510.12L438.28 571.881C436.878 572.461 435.338 571.048 435.797 569.601L484.629 416.141C484.733 415.816 484.916 415.518 485.159 415.273C485.402 415.029 485.699 414.846 486.021 414.741C486.346 414.641 486.684 414.623 487.005 414.689C487.326 414.756 487.619 414.904 487.856 415.121ZM582.764 507.749L487.357 420.171L440.719 566.734L582.764 507.749Z"/><path fill="#88DF95" d="M1745.51 647.671L1712.97 588.19C1712.8 587.883 1712.73 587.533 1712.76 587.177C1712.79 586.821 1712.92 586.474 1713.14 586.175L1808.75 456.584C1808.95 456.31 1809.22 456.086 1809.53 455.933C1809.84 455.78 1810.18 455.704 1810.52 455.71C1810.86 455.717 1811.18 455.807 1811.47 455.972C1811.75 456.136 1811.98 456.37 1812.13 456.651L1844.67 516.132C1844.84 516.438 1844.92 516.789 1844.88 517.145C1844.85 517.501 1844.72 517.848 1844.5 518.147L1748.89 647.738C1748.69 648.011 1748.42 648.234 1748.11 648.386C1747.8 648.538 1747.46 648.615 1747.12 648.608C1746.78 648.601 1746.46 648.512 1746.18 648.348C1745.89 648.184 1745.66 647.951 1745.51 647.671ZM1717.08 587.263L1747.61 643.054L1840.56 517.062L1810.04 461.272L1717.08 587.263Z"/><path fill="#88DF95" d="M1611.99 588.189L1546.9 469.227C1546.75 468.946 1546.68 468.626 1546.69 468.3C1546.7 467.974 1546.8 467.651 1546.98 467.362C1547.16 467.073 1547.4 466.827 1547.7 466.649C1548 466.47 1548.33 466.365 1548.67 466.342L1709.36 455.713C1710.87 455.614 1711.88 457.448 1710.98 458.67L1615.37 588.262C1615.17 588.535 1614.9 588.759 1614.59 588.913C1614.28 589.066 1613.94 589.144 1613.6 589.139C1613.26 589.13 1612.94 589.038 1612.65 588.872C1612.37 588.706 1612.14 588.471 1611.99 588.189ZM1551.93 469.953L1614.08 583.569L1705.39 459.801L1551.93 469.953Z"/><path fill="#88DF95" d="M575.301 298.876L572.229 231.145C572.213 230.796 572.302 230.449 572.486 230.143C572.67 229.837 572.942 229.584 573.271 229.412L716.124 155.062C716.427 154.906 716.767 154.823 717.112 154.822C717.458 154.821 717.797 154.902 718.099 155.057C718.4 155.212 718.653 155.436 718.835 155.708C719.016 155.98 719.119 156.291 719.135 156.611L722.207 224.343C722.223 224.692 722.134 225.039 721.95 225.345C721.765 225.651 721.494 225.904 721.165 226.075L578.312 300.425C578.009 300.581 577.669 300.663 577.324 300.663C576.979 300.663 576.64 300.582 576.339 300.428C576.038 300.273 575.785 300.049 575.603 299.778C575.422 299.506 575.317 299.196 575.301 298.876ZM576.335 232.124L579.216 295.652L718.101 223.368L715.22 159.839L576.335 232.124Z"/><path fill="#88DF95" d="M572.23 231.145L566.086 95.6815C566.072 95.3612 566.146 95.0423 566.301 94.7549C566.457 94.4676 566.689 94.2214 566.974 94.0396C567.26 93.8579 567.591 93.7466 567.935 93.7163C568.279 93.686 568.625 93.7378 568.94 93.8666L717.937 154.98C719.34 155.557 719.435 157.646 718.09 158.348L575.237 232.698C574.934 232.854 574.595 232.937 574.25 232.939C573.905 232.941 573.565 232.861 573.263 232.708C572.962 232.55 572.71 232.324 572.529 232.051C572.348 231.778 572.245 231.466 572.23 231.145ZM570.278 98.5419L576.145 227.917L712.577 156.909L570.278 98.5419Z"/><path fill="#88DF95" d="M282.127 290.537L232.975 243.836C232.721 243.595 232.545 243.283 232.466 242.935C232.387 242.587 232.407 242.216 232.526 241.864L283.989 89.2656C284.099 88.9429 284.287 88.6476 284.535 88.4075C284.784 88.1674 285.085 87.9904 285.409 87.8933C285.734 87.7963 286.072 87.7823 286.391 87.8526C286.71 87.923 287 88.0755 287.233 88.2956L336.386 134.997C336.639 135.238 336.816 135.55 336.895 135.898C336.974 136.246 336.954 136.617 336.835 136.969L285.371 289.567C285.261 289.889 285.073 290.184 284.824 290.423C284.576 290.663 284.275 290.839 283.951 290.936C283.627 291.033 283.289 291.047 282.97 290.978C282.651 290.908 282.361 290.756 282.127 290.537ZM236.613 241.696L282.716 285.499L332.75 137.14L286.648 93.3362L236.613 241.696Z"/><path fill="#88DF95" d="M199.975 495.769L101.67 402.366C101.438 402.144 101.27 401.863 101.183 401.548C101.096 401.233 101.092 400.895 101.172 400.566C101.253 400.237 101.414 399.928 101.641 399.667C101.868 399.407 102.153 399.205 102.47 399.079L252.239 339.884C253.65 339.328 255.166 340.768 254.683 342.206L203.219 494.804C203.109 495.127 202.922 495.422 202.675 495.662C202.427 495.903 202.127 496.081 201.803 496.179C201.477 496.274 201.138 496.286 200.819 496.215C200.499 496.143 200.209 495.989 199.975 495.769ZM106.674 401.523L200.561 490.728L249.711 344.988L106.674 401.523Z"/><path fill="#88DF95" d="M192.526 902.53L201.261 835.294C201.306 834.947 201.454 834.621 201.689 834.352C201.923 834.082 202.235 833.88 202.589 833.769L356.181 785.353C356.507 785.251 356.856 785.228 357.196 785.288C357.537 785.347 357.857 785.485 358.127 785.69C358.397 785.895 358.607 786.16 358.739 786.459C358.87 786.758 358.918 787.083 358.878 787.401L350.142 854.637C350.097 854.983 349.949 855.31 349.715 855.579C349.48 855.848 349.169 856.05 348.815 856.162L195.222 904.578C194.897 904.679 194.548 904.7 194.208 904.641C193.868 904.581 193.548 904.443 193.279 904.238C193.009 904.033 192.799 903.769 192.667 903.47C192.535 903.172 192.487 902.848 192.526 902.53ZM205.135 836.971L196.942 900.035L346.268 852.964L354.461 789.9L205.135 836.971Z"/><path fill="#88DF95" d="M201.262 835.294L218.733 700.822C218.775 700.504 218.903 700.203 219.106 699.947C219.309 699.691 219.58 699.488 219.893 699.359C220.206 699.23 220.551 699.178 220.895 699.207C221.239 699.237 221.571 699.348 221.859 699.53L357.981 785.586C359.262 786.399 358.993 788.472 357.546 788.93L203.954 837.345C203.629 837.447 203.28 837.47 202.94 837.412C202.6 837.354 202.279 837.216 202.008 837.013C201.739 836.806 201.53 836.539 201.399 836.239C201.269 835.938 201.222 835.613 201.262 835.294ZM222.364 704.366L205.678 832.795L352.368 786.555L222.364 704.366Z"/><path fill="#88DF95" d="M1461.98 410.858L1396.92 391.768C1396.59 391.67 1396.29 391.473 1396.06 391.199C1395.83 390.926 1395.68 390.586 1395.62 390.219L1371.69 230.964C1371.64 230.627 1371.67 230.279 1371.79 229.952C1371.9 229.625 1372.08 229.33 1372.33 229.095C1372.57 228.86 1372.87 228.694 1373.18 228.61C1373.5 228.527 1373.83 228.53 1374.13 228.62L1439.19 247.709C1439.53 247.808 1439.83 248.005 1440.06 248.278C1440.29 248.552 1440.44 248.891 1440.49 249.258L1464.42 408.513C1464.47 408.85 1464.44 409.198 1464.33 409.525C1464.22 409.851 1464.03 410.145 1463.78 410.38C1463.54 410.614 1463.25 410.781 1462.93 410.865C1462.62 410.948 1462.29 410.946 1461.98 410.858ZM1399.18 388.202L1460.2 406.107L1436.94 251.276L1375.92 233.371L1399.18 388.202Z"/><path fill="#88DF95" d="M1396.92 391.767L1266.81 353.588C1266.5 353.497 1266.22 353.323 1266 353.083C1265.78 352.843 1265.62 352.544 1265.54 352.214C1265.46 351.885 1265.46 351.536 1265.55 351.201C1265.63 350.865 1265.79 350.555 1266.02 350.299L1372.2 229.223C1373.2 228.084 1375.21 228.672 1375.44 230.173L1399.37 389.427C1399.42 389.764 1399.39 390.112 1399.28 390.439C1399.16 390.766 1398.98 391.062 1398.74 391.297C1398.49 391.531 1398.19 391.696 1397.88 391.779C1397.56 391.861 1397.23 391.857 1396.92 391.767ZM1270.87 350.552L1395.14 387.016L1372.29 234.919L1270.87 350.552Z"/><path fill="#88DF95" d="M827.909 354.27L877.857 400.12C878.114 400.356 878.296 400.665 878.381 401.012C878.467 401.359 878.452 401.73 878.34 402.084L829.507 555.544C829.403 555.869 829.22 556.167 828.976 556.412C828.732 556.656 828.434 556.838 828.111 556.941C827.788 557.043 827.451 557.063 827.13 556.998C826.81 556.933 826.517 556.786 826.28 556.57L776.332 510.72C776.075 510.484 775.893 510.175 775.808 509.828C775.722 509.482 775.737 509.11 775.849 508.757L824.682 355.296C824.787 354.972 824.97 354.674 825.214 354.431C825.459 354.187 825.756 354.005 826.079 353.903C826.401 353.8 826.739 353.78 827.059 353.845C827.379 353.909 827.671 354.055 827.909 354.27ZM874.256 402.322L827.407 359.318L779.931 508.516L826.779 551.52L874.256 402.322Z"/><path fill="#88DF95" d="M877.856 400.121L977.753 491.82C977.989 492.037 978.161 492.316 978.254 492.629C978.346 492.942 978.355 493.28 978.281 493.611C978.206 493.941 978.051 494.253 977.828 494.517C977.606 494.781 977.324 494.989 977.009 495.12L828.28 556.881C826.878 557.461 825.338 556.048 825.797 554.601L874.629 401.141C874.733 400.816 874.916 400.518 875.159 400.273C875.402 400.029 875.699 399.846 876.021 399.741C876.346 399.641 876.684 399.623 877.005 399.689C877.326 399.756 877.619 399.904 877.856 400.121ZM972.764 492.749L877.357 405.171L830.719 551.734L972.764 492.749Z"/><path fill="#88DF95" d="M626.909 638.477L676.857 684.327C677.115 684.563 677.296 684.872 677.381 685.219C677.467 685.565 677.452 685.937 677.34 686.29L628.507 839.751C628.403 840.075 628.22 840.374 627.976 840.618C627.732 840.863 627.434 841.045 627.111 841.147C626.788 841.25 626.451 841.27 626.13 841.205C625.81 841.14 625.517 840.993 625.28 840.777L575.332 794.927C575.075 794.691 574.893 794.382 574.808 794.035C574.723 793.688 574.737 793.317 574.849 792.963L623.682 639.503C623.787 639.179 623.97 638.881 624.215 638.637C624.459 638.394 624.756 638.212 625.079 638.11C625.402 638.007 625.739 637.987 626.059 638.051C626.379 638.116 626.672 638.262 626.909 638.477ZM673.256 686.529L626.407 643.524L578.931 792.722L625.779 835.727L673.256 686.529Z"/><path fill="#88DF95" d="M888.043 684.327L987.939 776.027C988.175 776.244 988.347 776.522 988.44 776.836C988.532 777.149 988.542 777.487 988.467 777.817C988.393 778.148 988.237 778.46 988.014 778.724C987.792 778.988 987.51 779.195 987.195 779.327L838.466 841.088C837.064 841.668 835.524 840.254 835.983 838.808L884.816 685.347C884.92 685.023 885.102 684.725 885.345 684.48C885.589 684.235 885.885 684.052 886.207 683.948C886.532 683.848 886.87 683.83 887.191 683.896C887.512 683.962 887.805 684.111 888.043 684.327ZM982.95 776.955L887.544 689.377L840.906 835.941L982.95 776.955Z"/><path fill="#88DF95" d="M1116.42 706.339L1163.53 657.575C1163.77 657.324 1164.08 657.15 1164.43 657.073C1164.78 656.997 1165.15 657.021 1165.5 657.142L1317.67 709.867C1317.99 709.979 1318.28 710.17 1318.52 710.42C1318.76 710.671 1318.93 710.973 1319.03 711.298C1319.12 711.624 1319.13 711.962 1319.06 712.28C1318.99 712.599 1318.83 712.888 1318.61 713.119L1271.5 761.883C1271.26 762.135 1270.95 762.308 1270.6 762.385C1270.25 762.461 1269.88 762.438 1269.53 762.316L1117.36 709.591C1117.04 709.478 1116.75 709.287 1116.51 709.037C1116.27 708.786 1116.1 708.484 1116 708.159C1115.91 707.834 1115.9 707.497 1115.97 707.178C1116.04 706.86 1116.2 706.571 1116.42 706.339ZM1165.64 661.231L1121.45 706.969L1269.39 758.23L1313.58 712.492L1165.64 661.231Z"/><path fill="#88DF95" d="M1163.53 657.575L1257.74 560.047C1257.96 559.816 1258.25 559.651 1258.56 559.567C1258.88 559.482 1259.21 559.481 1259.54 559.564C1259.87 559.647 1260.18 559.811 1260.44 560.04C1260.7 560.269 1260.9 560.556 1261.02 560.874L1318.97 711.128C1319.52 712.544 1318.07 714.048 1316.63 713.552L1164.46 660.827C1164.14 660.715 1163.85 660.526 1163.61 660.276C1163.37 660.026 1163.2 659.725 1163.1 659.4C1163.01 659.073 1163 658.735 1163.07 658.416C1163.15 658.097 1163.3 657.807 1163.53 657.575ZM1258.54 565.058L1168.56 658.203L1313.89 708.558L1258.54 565.058Z"/><path fill="#88DF95" d="M1678 898.519L1611.54 911.975C1611.2 912.044 1610.85 912.009 1610.51 911.875C1610.18 911.74 1609.89 911.51 1609.67 911.211L1514.23 781.498C1514.03 781.223 1513.89 780.9 1513.84 780.558C1513.79 780.217 1513.81 779.869 1513.92 779.548C1514.03 779.226 1514.21 778.941 1514.45 778.72C1514.69 778.499 1514.98 778.349 1515.3 778.285L1581.75 764.829C1582.09 764.759 1582.45 764.794 1582.78 764.929C1583.11 765.064 1583.4 765.293 1583.62 765.592L1679.06 895.305C1679.26 895.581 1679.4 895.904 1679.45 896.245C1679.5 896.586 1679.48 896.933 1679.37 897.254C1679.26 897.576 1679.08 897.86 1678.84 898.081C1678.6 898.303 1678.31 898.453 1678 898.519ZM1611.88 907.767L1674.21 895.146L1581.42 769.036L1519.09 781.657L1611.88 907.767Z"/><path fill="#88DF95" d="M1611.54 911.974L1478.64 938.886C1478.32 938.949 1478 938.925 1477.69 938.815C1477.38 938.706 1477.1 938.515 1476.88 938.26C1476.66 938.006 1476.5 937.696 1476.41 937.361C1476.33 937.026 1476.33 936.676 1476.41 936.344L1513.87 779.72C1514.22 778.244 1516.27 777.829 1517.17 779.05L1612.62 908.764C1612.82 909.038 1612.95 909.361 1613.01 909.702C1613.06 910.043 1613.03 910.39 1612.93 910.712C1612.82 911.034 1612.64 911.318 1612.39 911.539C1612.15 911.759 1611.86 911.909 1611.54 911.974ZM1480.82 934.304L1607.75 908.602L1516.6 784.718L1480.82 934.304Z"/><path fill="#88DF95" d="M935.848 261.541L980.044 210.124C980.272 209.859 980.575 209.667 980.919 209.571C981.262 209.474 981.634 209.476 981.991 209.577L1136.96 253.378C1137.29 253.472 1137.59 253.645 1137.85 253.881C1138.1 254.117 1138.29 254.409 1138.4 254.728C1138.52 255.048 1138.55 255.384 1138.49 255.707C1138.44 256.029 1138.3 256.326 1138.09 256.57L1093.9 307.987C1093.67 308.252 1093.37 308.444 1093.02 308.54C1092.68 308.637 1092.31 308.635 1091.95 308.534L936.978 264.732C936.651 264.638 936.348 264.465 936.096 264.228C935.845 263.992 935.653 263.701 935.54 263.382C935.427 263.063 935.396 262.726 935.45 262.404C935.504 262.082 935.641 261.785 935.848 261.541ZM982.363 213.651L940.909 261.878L1091.58 304.462L1133.03 256.236L982.363 213.651Z"/><path fill="#88DF95" d="M980.045 210.124L1068.44 107.29C1068.65 107.047 1068.92 106.866 1069.23 106.763C1069.54 106.661 1069.88 106.64 1070.21 106.704C1070.54 106.767 1070.86 106.913 1071.13 107.127C1071.4 107.341 1071.62 107.616 1071.76 107.926L1138.34 254.561C1138.96 255.943 1137.6 257.529 1136.14 257.118L981.17 213.316C980.842 213.223 980.538 213.051 980.286 212.815C980.033 212.58 979.84 212.289 979.726 211.971C979.615 211.65 979.586 211.312 979.642 210.989C979.697 210.666 979.836 210.369 980.045 210.124ZM1069.53 112.246L985.108 210.458L1133.11 252.291L1069.53 112.246Z"/><path stroke="#88DF95" stroke-width="3" d="M1330.47 441.812L1323.1 466.638L1322.79 467.683L1323.69 468.301L1345.02 482.985L1319.13 483.645L1318.04 483.672L1317.73 484.717L1310.36 509.544L1301.73 485.125L1301.37 484.097L1300.28 484.125L1274.39 484.785L1294.94 469.034L1295.81 468.371L1295.45 467.343L1286.82 442.924L1308.15 457.608L1309.05 458.226L1309.91 457.563L1330.47 441.812Z"/><path stroke="#88DF95" stroke-width="3" d="M519.471 644.812L512.098 669.638L511.788 670.683L512.686 671.301L534.019 685.985L508.129 686.645L507.039 686.672L506.729 687.717L499.357 712.544L490.728 688.125L490.365 687.097L489.276 687.125L463.386 687.785L483.943 672.034L484.809 671.371L484.445 670.343L475.817 645.924L497.151 660.608L498.048 661.226L498.913 660.563L519.471 644.812Z"/><path stroke="#88DF95" stroke-width="3" d="M479.471 241.812L472.098 266.638L471.788 267.683L472.685 268.301L494.019 282.985L468.129 283.645L467.039 283.672L466.729 284.717L459.356 309.544L450.728 285.125L450.365 284.097L449.276 284.125L423.386 284.785L443.943 269.034L444.808 268.371L444.445 267.343L435.817 242.924L457.151 257.608L458.048 258.226L458.913 257.563L479.471 241.812Z"/><path stroke="#88DF95" stroke-width="3" d="M1676.47 124.812L1669.1 149.638L1668.79 150.683L1669.69 151.301L1691.02 165.985L1665.13 166.645L1664.04 166.672L1663.73 167.717L1656.36 192.544L1647.73 168.125L1647.37 167.097L1646.28 167.125L1620.39 167.785L1640.94 152.034L1641.81 151.371L1641.45 150.343L1632.82 125.924L1654.15 140.608L1655.05 141.226L1655.91 140.563L1676.47 124.812Z"/><path stroke="#88DF95" stroke-width="3" d="M1149.47 869.812L1142.1 894.638L1141.79 895.683L1142.69 896.301L1164.02 910.985L1138.13 911.645L1137.04 911.672L1136.73 912.717L1129.36 937.544L1120.73 913.125L1120.37 912.097L1119.28 912.125L1093.39 912.785L1113.94 897.034L1114.81 896.371L1114.45 895.343L1105.82 870.924L1127.15 885.608L1128.05 886.226L1128.91 885.563L1149.47 869.812Z"/></svg>